<svg width="2466" height="2371" viewBox="0 0 2466 2371" fill="none" xmlns="http://www.w3.org/2000/svg">
<path d="M1799.38 569.5V572H1801.88H2275.94C2325.57 572 2373.16 591.715 2408.25 626.808C2443.35 661.9 2463.06 709.496 2463.06 759.125V2181.31C2463.06 2230.94 2443.35 2278.54 2408.25 2313.63C2373.16 2348.72 2325.57 2368.44 2275.94 2368.44H190.062C140.434 2368.44 92.8379 2348.72 57.7451 2313.63C22.6524 2278.54 2.9375 2230.94 2.9375 2181.31V759.125C2.9375 709.496 22.6524 661.9 57.7451 626.808C92.8379 591.715 140.434 572 190.062 572H664.125H666.625V569.5C666.625 419.288 726.297 275.228 832.512 169.012C938.728 62.7965 1082.79 3.125 1233 3.125C1383.21 3.125 1527.27 62.7965 1633.49 169.012C1739.7 275.228 1799.38 419.288 1799.38 569.5ZM1612.25 572H1614.75V569.5C1614.75 468.254 1574.53 371.154 1502.94 299.562C1431.35 227.97 1334.25 187.75 1233 187.75C1131.75 187.75 1034.65 227.97 963.062 299.562C891.47 371.154 851.25 468.254 851.25 569.5V572H853.75H1612.25ZM2275.94 2183.81H2278.44V2181.31V759.125V756.625H2275.94H1801.88H1799.38V759.125V948.75C1799.38 973.233 1789.65 996.713 1772.34 1014.02C1755.03 1031.34 1731.55 1041.06 1707.06 1041.06C1682.58 1041.06 1659.1 1031.34 1641.79 1014.02C1624.48 996.713 1614.75 973.233 1614.75 948.75V759.125V756.625H1612.25H853.75H851.25V759.125V948.75C851.25 973.233 841.524 996.713 824.212 1014.02C806.9 1031.34 783.42 1041.06 758.938 1041.06C734.455 1041.06 710.975 1031.34 693.663 1014.02C676.351 996.713 666.625 973.233 666.625 948.75V759.125V756.625H664.125H190.062H187.562V759.125V2181.31V2183.81H190.062H2275.94Z" fill="#688AEF" stroke="white" stroke-width="5"/>
</svg>
